<?xml version="1.0" encoding="UTF-8" standalone="no"?>
<!-- Created with Inkscape (http://www.inkscape.org/) -->

<svg
   xmlns:dc="http://purl.org/dc/elements/1.1/"
   xmlns:cc="http://creativecommons.org/ns#"
   xmlns:rdf="http://www.w3.org/1999/02/22-rdf-syntax-ns#"
   xmlns:svg="http://www.w3.org/2000/svg"
   xmlns="http://www.w3.org/2000/svg"
   xmlns:sodipodi="http://sodipodi.sourceforge.net/DTD/sodipodi-0.dtd"
   xmlns:inkscape="http://www.inkscape.org/namespaces/inkscape"
   width="744.09448819"
   height="1052.3622047"
   id="svg2"
   version="1.1"
   inkscape:version="0.48.2 r9819"
   sodipodi:docname="New document 1">
  <defs
     id="defs4" />
  <sodipodi:namedview
     id="base"
     pagecolor="#ffffff"
     bordercolor="#666666"
     borderopacity="1.0"
     inkscape:pageopacity="0.0"
     inkscape:pageshadow="2"
     inkscape:zoom="0.98994949"
     inkscape:cx="496.21831"
     inkscape:cy="775.11235"
     inkscape:document-units="px"
     inkscape:current-layer="layer1"
     showgrid="false"
     inkscape:window-width="1280"
     inkscape:window-height="710"
     inkscape:window-x="1350"
     inkscape:window-y="649"
     inkscape:window-maximized="0" />
  <metadata
     id="metadata7">
    <rdf:RDF>
      <cc:Work
         rdf:about="">
        <dc:format>image/svg+xml</dc:format>
        <dc:type
           rdf:resource="http://purl.org/dc/dcmitype/StillImage" />
        <dc:title></dc:title>
      </cc:Work>
    </rdf:RDF>
  </metadata>
  <g
     inkscape:label="Layer 1"
     inkscape:groupmode="layer"
     id="layer1">
    <rect
       style="fill:#b3b3b3"
       id="rect3041"
       width="529.31995"
       height="399.01022"
       x="105.05586"
       y="195.75282" />
    <g
       id="g3045">
      <rect
         y="255.71242"
         x="170.13704"
         height="120"
         width="120"
         id="rect3043"
         style="fill:#ffffff" />
      <g
         transform="matrix(0.33778306,0,0,0.33778306,123.57663,104.5013)"
         id="layer1-5">
        <path
           inkscape:connector-curvature="0"
           d="m 314.15745,481.69558 c -59.20089,0.53774 -114.80979,36.72219 -137.3125,95.34375 -29.39129,76.56693 8.83932,162.45246 85.40625,191.84375 l 34.03125,-88.6875 c -20.0678,-7.71358 -34.3125,-27.15324 -34.3125,-49.9375 0,-29.54723 23.95277,-53.5 53.5,-53.5 29.54723,0 53.5,23.95277 53.5,53.5 0,22.78426 -14.2447,42.22392 -34.3125,49.9375 l 34.03125,88.6875 c 39.29085,-15.08234 70.3239,-46.1154 85.40625,-85.40625 29.39129,-76.56693 -8.83932,-162.48371 -85.40625,-191.875 -17.94537,-6.88859 -36.40853,-10.07087 -54.53125,-9.90625 z"
           id="path2830"
           style="fill:#40aa54;fill-opacity:1;stroke:#20552a;stroke-width:7.99999952;stroke-miterlimit:4;stroke-opacity:1;stroke-dasharray:none" />
      </g>
    </g>
  </g>
</svg>
